# xmcd
#
# Track frame offsets:
#	150
#	18053
#	34272
#	44373
#	56425
#	69111
#	81035
#	95081
#	104923
#	118676
#	128365
#	139972
#	155550
#
# Disc length: 2310 seconds
#
# Revision: 2
# Processed by: cddbd v1.5.2PL0 Copyright (c) Steve Scherf et al.
# Submitted via: audiograbber 1.83.01
#
DISCID=aa09040d
DTITLE=Various Artist - 25 greatest blues classics [CD#1)
DYEAR=1900
DGENRE=Blues
TTITLE0=John Lee Hooker - House Rent Boogie
TTITLE1=B.B. King - I Think Your Cheating On Me Baby
TTITLE2=Mike Bloomfield - R.X. For The Blues
TTITLE3=Charles Brown - Trouble Blues
TTITLE4=Ray Charles - Baby Wont You Please Come Home
TTITLE5=Lightnin Hopkins - Lonesome Dog
TTITLE6=Pee Wee Crayton - Blues In The Ghetto
TTITLE7=Buddy Guy - First Time I Met The Blues
TTITLE8=Leadbelly - The Bourgeois Blues
TTITLE9=Big Maybelle - The Same Old Story
TTITLE10=Memphis Slim - Let The Good Times Roll Creole
TTITLE11=Mississippi Fred McDowell - Good Morning Little School Girl
TTITLE12=Gatemouth Moore - Boogie Woogie Papa
EXTD=
EXTT0=
EXTT1=
EXTT2=
EXTT3=
EXTT4=
EXTT5=
EXTT6=
EXTT7=
EXTT8=
EXTT9=
EXTT10=
EXTT11=
EXTT12=
PLAYORDER=
